<svg width="24" height="24" viewBox="0 0 24 24" fill="none" xmlns="http://www.w3.org/2000/svg">
<path d="M14.62 2.662C14.8098 2.71511 14.9873 2.8051 15.1423 2.92683C15.2973 3.04857 15.4268 3.19966 15.5234 3.37147C15.62 3.54328 15.6818 3.73244 15.7052 3.92814C15.7286 4.12384 15.7133 4.32224 15.66 4.512L11.229 20.299C11.1216 20.6821 10.8664 21.0068 10.5195 21.2018C10.1727 21.3967 9.76261 21.4459 9.3795 21.3385C8.9964 21.2311 8.67165 20.9759 8.47671 20.629C8.28176 20.2822 8.23259 19.8721 8.34 19.489L12.771 3.7C12.8242 3.51028 12.9143 3.33291 13.0361 3.17801C13.1578 3.02311 13.3089 2.89372 13.4807 2.79723C13.6525 2.70074 13.8417 2.63905 14.0373 2.61568C14.233 2.5923 14.4313 2.6077 14.621 2.661L14.62 2.662ZM7.56 6.697C7.8409 6.97825 7.99868 7.3595 7.99868 7.757C7.99868 8.1545 7.8409 8.53575 7.56 8.817L4.38 12L7.562 15.182C7.84326 15.4634 8.00122 15.845 8.00113 16.2429C8.00103 16.6407 7.84289 17.0222 7.5615 17.3035C7.28011 17.5848 6.89851 17.7427 6.50065 17.7426C6.10279 17.7425 5.72126 17.5844 5.44 17.303L1.197 13.06C0.916099 12.7787 0.75832 12.3975 0.75832 12C0.75832 11.6025 0.916099 11.2213 1.197 10.94L5.439 6.697C5.5783 6.55761 5.7437 6.44704 5.92575 6.37159C6.1078 6.29615 6.30294 6.25732 6.5 6.25732C6.69706 6.25732 6.8922 6.29615 7.07425 6.37159C7.2563 6.44704 7.4207 6.55761 7.56 6.697ZM16.44 8.817C16.2926 8.67968 16.1744 8.51407 16.0924 8.33008C16.0105 8.14608 15.9664 7.94745 15.9628 7.74605C15.9593 7.54464 15.9963 7.34458 16.0718 7.1578C16.1472 6.97103 16.2595 6.80136 16.4019 6.65892C16.5444 6.51649 16.714 6.4042 16.9008 6.32875C17.0876 6.25331 17.2876 6.21626 17.489 6.21982C17.6904 6.22337 17.8891 6.26745 18.0731 6.34944C18.2571 6.43142 18.4227 6.54963 18.56 6.697L22.803 10.939C23.0842 11.2203 23.2422 11.6018 23.2422 11.9995C23.2422 12.3972 23.0842 12.7787 22.803 13.06L18.561 17.303C18.4217 17.4423 18.2564 17.5529 18.0744 17.6283C17.8924 17.7037 17.6974 17.7426 17.5004 17.7426C17.3034 17.7427 17.1083 17.7039 16.9263 17.6286C16.7442 17.5532 16.5788 17.4428 16.4395 17.3035C16.3002 17.1642 16.1896 16.9989 16.1142 16.8169C16.0388 16.6349 15.9999 16.4399 15.9999 16.2429C15.9998 16.0459 16.0386 15.8508 16.1139 15.6688C16.1893 15.4867 16.2997 15.3213 16.439 15.182L19.621 12L16.44 8.817Z" fill="#0D99FF"/>
</svg>
